ground reactions
version=1
nRows=66
nColumns=19
inDegrees=no
endheader
time	ground_force_l_vx	ground_force_l_vy	ground_force_l_vz	ground_force_l_px	ground_force_l_py	ground_force_l_pz	ground_torque_l_x	ground_torque_l_y	ground_torque_l_z	ground_force_r_vx	ground_force_r_vy	ground_force_r_vz	ground_force_r_px	ground_force_r_py	ground_force_r_pz	ground_torque_r_x	ground_torque_r_y	ground_torque_r_z
4.700000	84.584058	767.893423	35.369347	1.063647	0.000000	-0.541729	0.000000	-7.414123	0.000000	-0.000141	0.005110	-0.001148	-0.000305	-0.000000	0.000608	0.000000	0.000000	0.000000
4.700500	84.894553	768.090207	35.209913	1.063086	0.000000	-0.541712	0.000000	-7.418561	0.000000	-0.000057	0.006026	-0.001184	-0.000273	-0.000000	0.000726	0.000000	0.000000	0.000000
4.701000	85.202396	768.284068	35.051023	1.062526	0.000000	-0.541695	0.000000	-7.422142	0.000000	0.000039	0.006899	-0.001192	-0.000230	-0.000000	0.000839	0.000000	0.000000	0.000000
4.701500	85.507603	768.474869	34.892813	1.061965	0.000000	-0.541678	0.000000	-7.424852	0.000000	0.000146	0.007701	-0.001171	-0.000175	-0.000000	0.000945	0.000000	0.000000	0.000000
4.702000	85.810193	768.662467	34.735424	1.061406	0.000000	-0.541661	0.000000	-7.426678	0.000000	0.000264	0.008402	-0.001116	-0.000108	-0.000000	0.001040	0.000000	0.000000	0.000000
4.702500	86.110192	768.846709	34.579001	1.060846	0.000000	-0.541644	0.000000	-7.427606	0.000000	0.000389	0.008970	-0.001025	-0.000030	-0.000000	0.001120	0.000000	0.000000	0.000000
4.703000	86.407631	769.027435	34.423696	1.060287	0.000000	-0.541628	0.000000	-7.427623	0.000000	0.000519	0.009372	-0.000895	0.000058	-0.000000	0.001180	0.000000	0.000000	0.000000
4.703500	86.702546	769.204478	34.269664	1.059729	0.000000	-0.541611	0.000000	-7.426715	0.000000	0.000653	0.009578	-0.000725	0.000156	-0.000000	0.001217	0.000000	0.000000	0.000000
4.704000	86.994981	769.377661	34.117066	1.059171	0.000000	-0.541595	0.000000	-7.424871	0.000000	0.000787	0.009557	-0.000514	0.000263	-0.000000	0.001227	0.000000	0.000000	0.000000
4.704500	87.284985	769.546801	33.966063	1.058614	0.000000	-0.541579	0.000000	-7.422078	0.000000	0.000916	0.009279	-0.000262	0.000376	-0.000000	0.001206	0.000000	0.000000	0.000000
4.705000	87.572612	769.711706	33.816820	1.058057	0.000000	-0.541563	0.000000	-7.418324	0.000000	0.001039	0.008719	0.000029	0.000494	-0.000000	0.001151	0.000000	0.000000	0.000000
4.705500	87.857923	769.872178	33.669501	1.057501	0.000000	-0.541547	0.000000	-7.413597	0.000000	0.001149	0.007855	0.000356	0.000614	-0.000000	0.001059	0.000000	0.000000	0.000000
4.706000	88.140986	770.028010	33.524273	1.056946	0.000000	-0.541531	0.000000	-7.407886	0.000000	0.001243	0.006671	0.000716	0.000733	-0.000000	0.000927	0.000000	0.000000	0.000000
4.706500	88.421873	770.178990	33.381301	1.056392	0.000000	-0.541516	0.000000	-7.401181	0.000000	0.001316	0.005157	0.001103	0.000848	-0.000000	0.000754	0.000000	0.000000	0.000000
4.707000	88.700662	770.324898	33.240750	1.055838	0.000000	-0.541500	0.000000	-7.393471	0.000000	0.001364	0.003309	0.001510	0.000956	-0.000000	0.000540	0.000000	0.000000	0.000000
4.707500	88.977437	770.465509	33.102781	1.055285	0.000000	-0.541485	0.000000	-7.384747	0.000000	0.001382	0.001134	0.001931	0.001052	-0.000000	0.000284	0.000000	0.000000	0.000000
4.708000	89.252286	770.600591	32.967555	1.054732	0.000000	-0.541469	0.000000	-7.374999	0.000000	0.001366	-0.001354	0.002354	0.001133	0.000000	-0.000012	0.000000	0.000000	0.000000
4.708500	89.525302	770.729908	32.835228	1.054181	0.000000	-0.541454	0.000000	-7.364219	0.000000	0.001311	-0.004129	0.002770	0.001195	0.000000	-0.000346	0.000000	0.000001	0.000000
4.709000	89.796581	770.853218	32.705953	1.053630	0.000000	-0.541438	0.000000	-7.352400	0.000000	0.001215	-0.007156	0.003166	0.001233	0.000000	-0.000713	0.000000	0.000001	0.000000
4.709500	90.066222	770.970275	32.579876	1.053080	0.000000	-0.541423	0.000000	-7.339533	0.000000	0.001075	-0.010387	0.003530	0.001244	0.000000	-0.001108	0.000000	0.000001	0.000000
4.710000	90.334331	771.080831	32.457141	1.052531	0.000000	-0.541408	0.000000	-7.325613	0.000000	0.000887	-0.013763	0.003847	0.001223	0.000000	-0.001525	0.000000	0.000001	0.000000
4.710500	90.601010	771.184633	32.337883	1.051983	0.000000	-0.541392	0.000000	-7.310633	0.000000	0.000653	-0.017213	0.004104	0.001168	0.000000	-0.001954	0.000000	0.000001	0.000000
4.711000	90.866368	771.281425	32.222232	1.051435	0.000000	-0.541377	0.000000	-7.294589	0.000000	0.000370	-0.020657	0.004285	0.001076	0.000000	-0.002387	0.000000	0.000001	0.000000
4.711500	91.130513	771.370951	32.110312	1.050888	0.000000	-0.541362	0.000000	-7.277478	0.000000	0.000042	-0.024001	0.004376	0.000943	0.000000	-0.002814	0.000000	0.000002	0.000000
4.712000	91.393553	771.452953	32.002238	1.050342	0.000000	-0.541346	0.000000	-7.259294	0.000000	-0.000330	-0.027144	0.004363	0.000768	0.000000	-0.003220	0.000000	0.000002	0.000000
4.712500	91.655597	771.527171	31.898119	1.049797	0.000000	-0.541331	0.000000	-7.240037	0.000000	-0.000742	-0.029973	0.004232	0.000552	0.000000	-0.003595	0.000000	0.000002	0.000000
4.713000	91.916751	771.593347	31.798056	1.049253	0.000000	-0.541316	0.000000	-7.219705	0.000000	-0.001187	-0.032373	0.003971	0.000293	0.000000	-0.003923	0.000000	0.000003	0.000000
4.713500	92.177122	771.651223	31.702140	1.048710	0.000000	-0.541300	0.000000	-7.198298	0.000000	-0.001659	-0.034219	0.003570	-0.000007	0.000000	-0.004190	0.000000	0.000003	0.000000
4.714000	92.436813	771.700542	31.610457	1.048167	0.000000	-0.541285	0.000000	-7.175816	0.000000	-0.002147	-0.035388	0.003019	-0.000345	0.000000	-0.004382	0.000000	0.000004	0.000000
4.714500	92.695925	771.741048	31.523082	1.047625	0.000000	-0.541270	0.000000	-7.152261	0.000000	-0.002642	-0.035754	0.002315	-0.000717	0.000000	-0.004484	0.000000	0.000005	0.000000
4.715000	92.954556	771.772491	31.440083	1.047084	0.000000	-0.541254	0.000000	-7.127636	0.000000	-0.003132	-0.035195	0.001454	-0.001117	0.000000	-0.004481	0.000000	0.000005	0.000000
4.715500	93.212798	771.794620	31.361519	1.046544	0.000000	-0.541239	0.000000	-7.101944	0.000000	-0.003602	-0.033596	0.000436	-0.001540	0.000000	-0.004362	0.000000	0.000007	0.000000
4.716000	93.470739	771.807190	31.287441	1.046005	0.000000	-0.541223	0.000000	-7.075190	0.000000	-0.004038	-0.030849	-0.000732	-0.001976	0.000000	-0.004114	0.000000	0.000008	0.000000
4.716500	93.728464	771.809961	31.217892	1.045466	0.000000	-0.541208	0.000000	-7.047382	0.000000	-0.004423	-0.026862	-0.002042	-0.002416	0.000000	-0.003726	0.000000	0.000009	0.000000
4.717000	93.986051	771.802697	31.152905	1.044929	0.000000	-0.541192	0.000000	-7.018526	0.000000	-0.004740	-0.021557	-0.003482	-0.002849	0.000000	-0.003193	0.000000	0.000011	0.000000
4.717500	94.243570	771.785166	31.092509	1.044392	0.000000	-0.541177	0.000000	-6.988630	0.000000	-0.004973	-0.014875	-0.005031	-0.003264	0.000000	-0.002508	0.000000	0.000013	0.000000
4.718000	94.501089	771.757144	31.036721	1.043856	0.000000	-0.541161	0.000000	-6.957704	0.000000	-0.005104	-0.006781	-0.006669	-0.003646	0.000000	-0.001672	0.000000	0.000016	0.000000
4.718500	94.758666	771.718414	30.985551	1.043320	0.000000	-0.541146	0.000000	-6.925760	0.000000	-0.005114	0.002736	-0.008368	-0.003982	0.000000	-0.000686	0.000000	0.000019	0.000000
4.719000	95.016354	771.668761	30.939004	1.042786	0.000000	-0.541130	0.000000	-6.892810	0.000000	-0.004988	0.013660	-0.010097	-0.004256	-0.000000	0.000442	0.000000	0.000023	0.000000
4.719500	95.274198	771.607983	30.897076	1.042252	0.000000	-0.541115	0.000000	-6.858866	0.000000	-0.004711	0.025946	-0.011820	-0.004456	-0.000000	0.001701	0.000000	0.000027	0.000000
4.720000	95.532237	771.535881	30.859755	1.041719	0.000000	-0.541100	0.000000	-6.823944	0.000000	-0.004267	0.039519	-0.013501	-0.004564	-0.000000	0.003074	0.000000	0.000032	0.000000
4.720500	95.790502	771.452266	30.827024	1.041186	0.000000	-0.541084	0.000000	-6.788060	0.000000	-0.003647	0.054278	-0.015097	-0.004568	-0.000000	0.004539	0.000000	0.000038	0.000000
4.721000	96.049017	771.356954	30.798858	1.040655	0.000000	-0.541069	0.000000	-6.751231	0.000000	-0.002840	0.070092	-0.016567	-0.004454	-0.000000	0.006071	0.000000	0.000045	0.000000
4.721500	96.307801	771.249771	30.775226	1.040124	0.000000	-0.541054	0.000000	-6.713476	0.000000	-0.001842	0.086807	-0.017870	-0.004211	-0.000000	0.007637	0.000000	0.000054	0.000000
4.722000	96.566865	771.130551	30.756091	1.039594	0.000000	-0.541039	0.000000	-6.674814	0.000000	-0.000650	0.104246	-0.018962	-0.003827	-0.000000	0.009200	0.000000	0.000064	0.000000
4.722500	96.826212	770.999134	30.741408	1.039065	0.000000	-0.541024	0.000000	-6.635266	0.000000	0.000734	0.122221	-0.019805	-0.003297	-0.000000	0.010718	0.000000	0.000076	0.000000
4.723000	97.085842	770.855370	30.731129	1.038537	0.000000	-0.541009	0.000000	-6.594856	0.000000	0.002303	0.140533	-0.020365	-0.002615	-0.000000	0.012146	0.000000	0.000091	0.000000
4.723500	97.345748	770.699114	30.725196	1.038009	0.000000	-0.540995	0.000000	-6.553605	0.000000	0.004047	0.158988	-0.020612	-0.001779	-0.000000	0.013435	0.000000	0.000108	0.000000
4.724000	97.605916	770.530232	30.723550	1.037482	0.000000	-0.540980	0.000000	-6.511539	0.000000	0.005950	0.177402	-0.020526	-0.000794	-0.000000	0.014533	0.000000	0.000128	0.000000
4.724500	97.866331	770.348596	30.726121	1.036956	0.000000	-0.540966	0.000000	-6.468685	0.000000	0.007991	0.195617	-0.020095	0.000334	-0.000000	0.015386	0.000000	0.000151	0.000000
4.725000	98.126970	770.154083	30.732837	1.036430	0.000000	-0.540952	0.000000	-6.425068	0.000000	0.010147	0.213515	-0.019320	0.001594	-0.000000	0.015942	0.000000	0.000180	0.000000
4.725500	98.387807	769.946580	30.743617	1.035905	0.000000	-0.540938	0.000000	-6.380717	0.000000	0.012387	0.231033	-0.018215	0.002969	-0.000000	0.016146	0.000000	0.000213	0.000000
4.726000	98.648815	769.725980	30.758377	1.035381	0.000000	-0.540924	0.000000	-6.335662	0.000000	0.014681	0.248184	-0.016812	0.004436	-0.000000	0.015950	0.000000	0.000252	0.000000
4.726500	98.909961	769.492181	30.777025	1.034858	0.000000	-0.540911	0.000000	-6.289933	0.000000	0.016992	0.265072	-0.015158	0.005969	-0.000000	0.015307	0.000000	0.000299	0.000000
4.727000	99.171213	769.245087	30.799462	1.034335	0.000000	-0.540898	0.000000	-6.243560	0.000000	0.019284	0.281917	-0.013322	0.007535	-0.000000	0.014176	0.000000	0.000353	0.000000
4.727500	99.432535	768.984608	30.825586	1.033813	0.000000	-0.540885	0.000000	-6.196578	0.000000	0.021520	0.299074	-0.011393	0.009097	-0.000000	0.012527	0.000000	0.000418	0.000000
4.728000	99.693893	768.710658	30.855284	1.033291	0.000000	-0.540872	0.000000	-6.149017	0.000000	0.023662	0.317058	-0.009482	0.010613	-0.000000	0.010335	0.000000	0.000494	0.000000
4.728500	99.955249	768.423156	30.888441	1.032770	0.000000	-0.540860	0.000000	-6.100914	0.000000	0.025678	0.336566	-0.007725	0.012037	-0.000000	0.007591	0.000000	0.000583	0.000000
4.729000	100.216570	768.122025	30.924930	1.032250	0.000000	-0.540848	0.000000	-6.052302	0.000000	0.027538	0.358498	-0.006280	0.013319	-0.000000	0.004295	0.000000	0.000688	0.000000
4.729500	100.477820	767.807191	30.964622	1.031730	0.000000	-0.540836	0.000000	-6.003218	0.000000	0.029219	0.383985	-0.005331	0.014407	-0.000000	0.000467	0.000000	0.000812	0.000000
4.730000	100.738966	767.478582	31.007377	1.031211	0.000000	-0.540825	0.000000	-5.953697	0.000000	0.030709	0.414408	-0.005082	0.015247	0.000000	-0.003862	0.000000	0.000957	0.000000
4.730500	100.999976	767.136128	31.053050	1.030692	0.000000	-0.540814	0.000000	-5.903777	0.000000	0.032005	0.451421	-0.005763	0.015786	0.000000	-0.008638	0.000000	0.001128	0.000000
4.731000	101.260824	766.779761	31.101485	1.030173	0.000000	-0.540804	0.000000	-5.853496	0.000000	0.033121	0.496966	-0.007621	0.015970	0.000000	-0.013790	0.000000	0.001327	0.000000
4.731500	101.521482	766.409414	31.152523	1.029655	0.000000	-0.540793	0.000000	-5.802892	0.000000	0.034086	0.553296	-0.010924	0.015750	0.000000	-0.019230	0.000000	0.001561	0.000000
4.732000	101.781929	766.025021	31.205992	1.029136	0.000000	-0.540784	0.000000	-5.752002	0.000000	0.034949	0.622984	-0.015954	0.015079	0.000000	-0.024846	0.000000	0.001835	0.000000
4.732500	102.042145	765.626512	31.261715	1.028618	0.000000	-0.540774	0.000000	-5.700867	0.000000	0.035784	0.708940	-0.023004	0.013919	0.000000	-0.030508	0.000000	0.002156	0.000000
